<?xml version="1.0" encoding="UTF-8"?>
<!DOCTYPE svg PUBLIC "-//W3C//DTD SVG 1.1//EN" "http://www.w3.org/Graphics/SVG/1.1/DTD/svg11.dtd">
<svg version="1.1" xmlns="http://www.w3.org/2000/svg" xmlns:xlink="http://www.w3.org/1999/xlink" x="0" y="0" width="16" height="16" viewBox="0, 0, 16, 16">
  <g id="Background">
    <rect x="0" y="0" width="16" height="16" fill="#FFFFFF" fill-opacity="0"/>
  </g>
  <g id="Layer_2">
    <g>
      <path d="M1.243,11.16 C1.269,9.575 1.704,5.89 4.789,3.791 C7.875,1.692 8.217,2.631 10.953,1.893 C13.766,1.133 14.574,0.463 14.753,0.62 C14.931,0.776 12.363,2.406 10.778,5.577 C9.192,8.748 7.975,9.094 7.473,9.441 C6.97,9.787 5.43,10.535 4.86,10.423 C4.291,10.311 3.766,9.441 4.28,8.592 C4.793,7.743 4.816,7.587 5.407,7.297 C5.999,7.006 7.853,6.805 8.02,6.426 C8.188,6.046 6.636,6.057 6.602,5.756 C6.569,5.454 9.527,4.483 9.46,4.215 C9.393,3.947 7.83,4.17 6.468,4.505 C5.106,4.84 4.354,5.323 3.476,6.359 C2.605,7.386 1.801,9.642 1.823,12.254 C1.842,14.426 1.89,15.381 1.6,15.403 C1.31,15.425 1.216,12.746 1.243,11.16 z" fill="#333333"/>
      <path d="M2.458,13.593 C2.6,14.56 3.862,14.905 4.271,14.204 C4.622,13.601 4.358,12.751 3.885,12.425 C3.42,12.103 2.315,12.625 2.458,13.593 z" fill="#333333"/>
    </g>
  </g>
</svg>
