<svg xmlns="http://www.w3.org/2000/svg" width="275.156" height="38.167"><path d="M.75.75h28.533v36.667H.75Z" fill="#FFF"/><path d="M.75.75h28.533v36.667H.75ZM5.133 9.317h19.534M5.133 13.181h13.323M5.133 17h11.26" stroke="#000" stroke-width="1.5" stroke-linecap="round" stroke-linejoin="round" fill="none"/><path d="M21.256 24.314s1.871-1.886 3.182.08c1.254 1.882-3.047 5.195-3.182 5.204-.135.008-4.417-3.322-3.162-5.204 1.31-1.966 3.162-.08 3.162-.08z" fill="#F70000"/><path d="M21.256 24.314s1.871-1.886 3.182.08c1.254 1.882-3.047 5.195-3.182 5.204-.135.008-4.417-3.322-3.162-5.204 1.31-1.966 3.162-.08 3.162-.08z" stroke="#000" stroke-width="1.5" stroke-linecap="round" stroke-linejoin="round" fill="none"/><path d="m10.462 23.241.016 6.072M10.462 23.241s4.471-.264 4.471 1.65-4.471 2.244-4.471 2.244" stroke="#000" stroke-width="1.485" stroke-linecap="round" stroke-linejoin="round" fill="none"/><path d="m46.235 9.98.05 18.4M46.235 9.98s13.55-.8 13.55 5-13.55 6.8-13.55 6.8" stroke="#000" stroke-width="4.5" stroke-linecap="round" stroke-linejoin="round" fill="none"/><path d="M77.035 12.53s5.613-5.66 9.546.239c3.764 5.646-9.141 15.586-9.546 15.611-.404.025-13.251-9.965-9.487-15.611 3.933-5.899 9.487-.239 9.487-.239z" fill="#F70000"/><path d="M77.035 12.53s5.613-5.66 9.546.239c3.764 5.646-9.141 15.586-9.546 15.611-.404.025-13.251-9.965-9.487-15.611 3.933-5.899 9.487-.239 9.487-.239zM94.835 10.032l.05 18.4M107.81 10.032H94.835M107.81 28.432H94.835M105.81 19.232H94.835M121.306 10.032l.05 18.4M127.818 10.032h-12.975M135.268 10.05l.05 18.4M135.268 10.05s13.55-.8 13.55 5-13.55 6.3-13.55 6.3M135.268 21.35l13.55 7.03M161.818 19.916l-.063 8.534M161.818 19.916l7.4-9.903M161.818 19.845l-7.4-9.903M200.968 20.9l.05 6.43M199.785 9.942s-13.517-2.513-13.517 9.29c0 11.803 14.75 9.218 14.75 9.218M200.968 20.968l-3.7-.068M208.018 28.45s1.5-18.569 7.75-18.732c6.25-.164 7.75 18.732 7.75 18.732M221.768 21.78h-11.25M231.598 28.589s.365-19.059 4.739-18.972c4.374.086 5.564 18.972 5.564 18.972M252.204 28.884s-.364-19.059-4.738-18.972c-4.374.086-5.565 18.972-5.565 18.972M259.931 10.22l.05 18.4M272.906 10.22h-12.975M272.906 28.62h-12.975M270.906 19.42h-10.975" stroke="#000" stroke-width="4.5" stroke-linecap="round" stroke-linejoin="round" fill="none"/></svg>