<svg width="281" height="38" xmlns="http://www.w3.org/2000/svg"><path d="M1 .8h29v37H1z" fill="#fff"/><path d="M1 .8h29v37H1z" stroke="#000" stroke-linecap="round" stroke-linejoin="round" stroke-width="1.5" fill="none"/><g fill-opacity="0" stroke="#000" stroke-linecap="round" stroke-linejoin="round" stroke-width="1.5" fill="none"><path d="M6 9.6h20M6 13.6h13M6 16.6h11"/></g><path d="M22 23.6s1.9-1.9 3.2.08c1.3 1.9-3 5.2-3.2 5.2-.14.008-4.4-3.3-3.2-5.2 1.3-2 3.2-.08 3.2-.08z" fill="#F70000"/><path d="M22 23.6s1.9-1.9 3.2.08c1.3 1.9-3 5.2-3.2 5.2-.14.008-4.4-3.3-3.2-5.2 1.3-2 3.2-.08 3.2-.08z" stroke="#000" stroke-linecap="round" stroke-linejoin="round" stroke-width="1.5" fill="none"/><g fill-opacity="0" stroke="#000" stroke-linecap="round" stroke-linejoin="round" fill="none"><path d="m11 23.6.016 6.1M11 23.6s4.5-.26 4.5 1.6-4.5 2.2-4.5 2.2" stroke-width="1.5"/><path d="m47 9.6.05 18M47 9.6s14-.8 14 5-14 6.8-14 6.8" stroke-width="4.5"/></g><path d="M78 12.6s5.6-5.7 9.5.24c3.8 5.6-9.1 16-9.5 16-.4.025-13-10-9.5-16 3.9-5.9 9.5-.24 9.5-.24z" fill="#F70000"/><path d="M78 12.6s5.6-5.7 9.5.24c3.8 5.6-9.1 16-9.5 16-.4.025-13-10-9.5-16 3.9-5.9 9.5-.24 9.5-.24z" stroke="#000" stroke-linecap="round" stroke-linejoin="round" stroke-width="4.5" fill="none"/><g fill-opacity="0" stroke="#000" stroke-linecap="round" stroke-linejoin="round" stroke-width="4.5" fill="none"><path d="m95 9.6.05 18M108 9.6H95M108 28.6H95M106 19.6H95"/></g><path d="m122 9.6.05 18" stroke="#000" stroke-linecap="round" stroke-linejoin="round" stroke-width="4.5" fill="none"/><g fill-opacity="0" stroke="#000" stroke-linecap="round" stroke-linejoin="round" stroke-width="4.5" fill="none"><path d="M128 9.6h-13M136 9.6l.05 18M136 9.6s14-.8 14 5-14 6.3-14 6.3M136 21.6l14 7M164 19.6l-.063 8.5M164 19.6l7.4-9.9M164 19.6l-7.4-9.9M205 20.6l.05 6.4M204 9.6s-14-2.5-14 9.3 15 9.2 15 9.2M205 20.6l-3.7-.068M215 28.6s1.5-19 7.8-19c6.2-.16 7.8 19 7.8 19M228 21.6h-11M238 28.6s.36-19 4.7-19c4.4.086 5.6 19 5.6 19M259 28.6s-.36-19-4.7-19c-4.4.086-5.6 19-5.6 19M266 9.6l.05 18M279 9.6h-13M279 28.6h-13M277 19.6h-11"/></g></svg>