<svg xmlns="http://www.w3.org/2000/svg" width="16" height="16"><path fill="none" d="M0 0h16v16H0z"/><g fill="#333"><path d="M1.243 11.16c.026-1.585.461-5.27 3.546-7.369 3.086-2.099 3.428-1.16 6.164-1.898 2.813-.76 3.621-1.43 3.8-1.273.178.156-2.39 1.786-3.975 4.957-1.586 3.171-2.803 3.517-3.305 3.864-.503.346-2.043 1.094-2.613.982-.569-.112-1.094-.982-.58-1.831.513-.849.536-1.005 1.127-1.295.592-.291 2.446-.492 2.613-.871.168-.38-1.384-.369-1.418-.67-.033-.302 2.925-1.273 2.858-1.541-.067-.268-1.63-.045-2.992.29-1.362.335-2.114.818-2.992 1.854-.871 1.027-1.675 3.283-1.653 5.895.019 2.172.067 3.127-.223 3.149-.29.022-.384-2.657-.357-4.243z"/><path d="M2.458 13.593c.142.967 1.404 1.312 1.813.611.351-.603.087-1.453-.386-1.779-.465-.322-1.57.2-1.427 1.168z"/></g></svg>