<?xml version="1.0" standalone="no"?>
<!DOCTYPE svg PUBLIC "-//W3C//DTD SVG 20010904//EN"
 "http://www.w3.org/TR/2001/REC-SVG-20010904/DTD/svg10.dtd">
<svg version="1.0" xmlns="http://www.w3.org/2000/svg"
 width="700.000000pt" height="700.000000pt" viewBox="0 0 700.000000 700.000000"
 preserveAspectRatio="xMidYMid meet">
<metadata>
Created by potrace 1.14, written by Peter Selinger 2001-2017
</metadata>
<g transform="translate(0.000000,700.000000) scale(0.100000,-0.100000)"
fill="#000000" stroke="none">
<path d="M6345 6720 c-27 -10 -135 -53 -240 -98 -104 -44 -228 -94 -275 -112
-47 -17 -100 -38 -118 -47 -18 -8 -40 -16 -50 -18 -9 -2 -53 -17 -97 -34 -409
-151 -1039 -318 -1340 -355 -27 -4 -70 -9 -95 -13 -46 -6 -55 -7 -178 -17 -40
-4 -89 -9 -110 -11 -20 -2 -75 -7 -122 -11 -47 -4 -92 -8 -100 -9 -8 -1 -42
-5 -75 -10 -33 -4 -69 -9 -80 -12 -11 -2 -38 -6 -60 -9 -114 -16 -324 -82
-494 -155 -323 -139 -804 -437 -1086 -672 -91 -77 -313 -301 -391 -397 -183
-225 -310 -420 -440 -682 -30 -59 -54 -110 -54 -112 0 -3 -13 -33 -29 -68
-186 -408 -317 -967 -358 -1528 -14 -198 -7 -1079 12 -1350 3 -36 7 -101 10
-145 3 -44 7 -98 10 -120 2 -22 7 -69 11 -105 3 -36 8 -74 10 -85 2 -11 6 -40
10 -65 11 -78 41 -181 60 -201 23 -26 39 -24 63 7 52 66 65 211 63 684 -2 667
-2 937 2 990 2 30 7 100 10 155 4 55 9 107 11 115 2 8 6 47 10 85 3 39 10 95
15 125 5 30 12 75 15 100 3 25 8 52 10 60 2 8 7 30 10 48 10 64 15 88 30 157
9 39 18 81 21 95 17 86 111 413 134 465 4 11 25 65 46 120 62 167 178 407 235
492 16 23 29 44 29 47 0 8 67 102 114 161 187 231 425 446 631 570 229 138
554 251 950 331 107 21 226 44 250 49 17 2 55 9 85 15 290 51 567 70 664 45
43 -11 65 -27 66 -47 0 -27 -201 -141 -400 -227 -30 -13 -75 -33 -100 -44 -25
-11 -101 -44 -170 -74 -376 -164 -546 -253 -570 -298 -30 -56 32 -88 278 -145
92 -21 194 -48 227 -59 67 -23 118 -70 108 -98 -17 -49 -94 -98 -218 -141 -49
-16 -355 -96 -446 -116 -201 -44 -338 -81 -427 -116 -92 -35 -212 -107 -265
-158 -78 -75 -313 -460 -349 -572 -31 -99 -33 -235 -3 -327 69 -216 228 -347
410 -336 220 12 692 206 1060 434 66 41 157 97 203 124 46 28 91 57 100 65 9
9 33 27 53 40 132 90 355 312 487 485 99 131 241 336 306 445 15 25 31 52 36
60 43 67 144 254 288 531 232 446 487 812 867 1243 95 109 438 454 583 586
206 189 274 262 258 277 -13 13 -62 10 -111 -7z"/>
<path d="M1481 1598 c-30 -4 -89 -25 -130 -45 -93 -44 -194 -141 -233 -223
-154 -323 89 -700 452 -703 110 0 189 32 254 104 53 59 74 102 97 196 50 207
-21 448 -174 597 -70 68 -155 92 -266 74z"/>
</g>
</svg>
