<?xml version="1.0" encoding="UTF-8" standalone="no"?>
<svg
   xmlns:dc="http://purl.org/dc/elements/1.1/"
   xmlns:cc="http://creativecommons.org/ns#"
   xmlns:rdf="http://www.w3.org/1999/02/22-rdf-syntax-ns#"
   xmlns:svg="http://www.w3.org/2000/svg"
   xmlns="http://www.w3.org/2000/svg"
   xmlns:sodipodi="http://sodipodi.sourceforge.net/DTD/sodipodi-0.dtd"
   xmlns:inkscape="http://www.inkscape.org/namespaces/inkscape"
   version="1.1"
   x="0"
   y="0"
   width="308.976"
   height="53.858"
   viewBox="0, 0, 308.976, 53.858"
   id="svg220"
   sodipodi:docname="poetry-game.svg"
   inkscape:version="1.0beta2 (2b71d25, 2019-12-03)">
  <metadata
     id="metadata226">
    <rdf:RDF>
      <cc:Work
         rdf:about="">
        <dc:format>image/svg+xml</dc:format>
        <dc:type
           rdf:resource="http://purl.org/dc/dcmitype/StillImage" />
        <dc:title />
      </cc:Work>
    </rdf:RDF>
  </metadata>
  <defs
     id="defs224" />
  <sodipodi:namedview
     pagecolor="#ffffff"
     bordercolor="#666666"
     inkscape:document-rotation="0"
     borderopacity="1"
     objecttolerance="10"
     gridtolerance="10"
     guidetolerance="10"
     inkscape:pageopacity="0"
     inkscape:pageshadow="2"
     inkscape:window-width="1719"
     inkscape:window-height="1194"
     id="namedview222"
     showgrid="false"
     inkscape:zoom="3.6011588"
     inkscape:cx="177.89704"
     inkscape:cy="24.985182"
     inkscape:window-x="477"
     inkscape:window-y="192"
     inkscape:window-maximized="0"
     inkscape:current-layer="poetry-game-icon" />
  <g
     id="poetry-game-icon">
    <g
       id="g143">
      <path
         d="M16.232,9.2 L44.765,9.2 L44.765,45.867 L16.232,45.867 L16.232,9.2 z"
         fill="#FFFFFF"
         id="path139" />
      <path
         d="M16.232,9.2 L44.765,9.2 L44.765,45.867 L16.232,45.867 L16.232,9.2 z"
         fill-opacity="0"
         stroke="#000000"
         stroke-width="1.5"
         stroke-linecap="round"
         stroke-linejoin="round"
         id="path141" />
    </g>
    <path
       d="M20.615,17.767 L40.149,17.767"
       fill-opacity="0"
       stroke="#000000"
       stroke-width="1.5"
       stroke-linecap="round"
       stroke-linejoin="round"
       id="path145" />
    <path
       d="M20.615,21.631 L33.938,21.631"
       fill-opacity="0"
       stroke="#000000"
       stroke-width="1.5"
       stroke-linecap="round"
       stroke-linejoin="round"
       id="path147" />
    <path
       d="M20.615,25.45 L31.875,25.45"
       fill-opacity="0"
       stroke="#000000"
       stroke-width="1.5"
       stroke-linecap="round"
       stroke-linejoin="round"
       id="path149" />
    <g
       transform="translate(0,0.27768839)"
       id="g155">
      <path
         inkscape:connector-curvature="0"
         d="m 36.738,32.486 c 0,0 1.871,-1.886 3.182,0.08 1.254,1.882 -3.047,5.195 -3.182,5.204 -0.135,0.008 -4.417,-3.322 -3.162,-5.204 1.31,-1.966 3.162,-0.08 3.162,-0.08 z"
         fill="#F70000"
         id="path151" />
      <path
         inkscape:connector-curvature="0"
         d="m 36.738,32.486 c 0,0 1.871,-1.886 3.182,0.08 1.254,1.882 -3.047,5.195 -3.182,5.204 -0.135,0.008 -4.417,-3.322 -3.162,-5.204 1.31,-1.966 3.162,-0.08 3.162,-0.08 z"
         fill-opacity="0"
         stroke="#000000"
         stroke-width="1.5"
         stroke-linecap="round"
         stroke-linejoin="round"
         id="path153" />
    </g>
    <path
       d="M25.944,31.691 L25.96,37.763"
       fill-opacity="0"
       stroke="#000000"
       stroke-width="1.485"
       stroke-linecap="round"
       stroke-linejoin="round"
       id="path157" />
    <path
       d="M25.944,31.691 C25.944,31.691 30.415,31.427 30.415,33.341 C30.415,35.255 25.944,35.585 25.944,35.585"
       fill-opacity="0"
       stroke="#000000"
       stroke-width="1.485"
       stroke-linecap="round"
       stroke-linejoin="round"
       id="path159" />
    <path
       d="M61.717,18.43 L61.767,36.83"
       fill-opacity="0"
       stroke="#000000"
       stroke-width="4.5"
       stroke-linecap="round"
       stroke-linejoin="round"
       id="path161" />
    <path
       d="M61.717,18.43 C61.717,18.43 75.267,17.63 75.267,23.43 C75.267,29.23 61.717,30.23 61.717,30.23"
       fill-opacity="0"
       stroke="#000000"
       stroke-width="4.5"
       stroke-linecap="round"
       stroke-linejoin="round"
       id="path163" />
    <g
       id="g169">
      <path
         d="M92.517,20.98 C92.517,20.98 98.13,15.32 102.063,21.219 C105.827,26.865 92.922,36.805 92.517,36.83 C92.113,36.855 79.266,26.865 83.03,21.219 C86.963,15.32 92.517,20.98 92.517,20.98 L92.517,20.98 z"
         fill="#F70000"
         id="path165" />
      <path
         d="M92.517,20.98 C92.517,20.98 98.13,15.32 102.063,21.219 C105.827,26.865 92.922,36.805 92.517,36.83 C92.113,36.855 79.266,26.865 83.03,21.219 C86.963,15.32 92.517,20.98 92.517,20.98 L92.517,20.98 z"
         fill-opacity="0"
         stroke="#000000"
         stroke-width="4.5"
         stroke-linecap="round"
         stroke-linejoin="round"
         id="path167" />
    </g>
    <path
       d="M110.317,18.482 L110.367,36.882"
       fill-opacity="0"
       stroke="#000000"
       stroke-width="4.5"
       stroke-linecap="round"
       stroke-linejoin="round"
       id="path171" />
    <path
       d="M123.292,18.482 L110.317,18.482"
       fill-opacity="0"
       stroke="#000000"
       stroke-width="4.5"
       stroke-linecap="round"
       stroke-linejoin="round"
       id="path173" />
    <path
       d="M123.292,36.882 L110.317,36.882"
       fill-opacity="0"
       stroke="#000000"
       stroke-width="4.5"
       stroke-linecap="round"
       stroke-linejoin="round"
       id="path175" />
    <path
       d="M121.292,27.682 L110.317,27.682"
       fill-opacity="0"
       stroke="#000000"
       stroke-width="4.5"
       stroke-linecap="round"
       stroke-linejoin="round"
       id="path177" />
    <g
       id="g181">
      <path
         d="M136.788,18.482 L136.838,36.882"
         fill-opacity="0"
         stroke="#000000"
         stroke-width="4.5"
         stroke-linecap="round"
         stroke-linejoin="round"
         id="path179" />
    </g>
    <path
       d="M143.3,18.482 L130.325,18.482"
       fill-opacity="0"
       stroke="#000000"
       stroke-width="4.5"
       stroke-linecap="round"
       stroke-linejoin="round"
       id="path183" />
    <path
       d="M150.75,18.5 L150.8,36.9"
       fill-opacity="0"
       stroke="#000000"
       stroke-width="4.5"
       stroke-linecap="round"
       stroke-linejoin="round"
       id="path185" />
    <path
       d="M150.75,18.5 C150.75,18.5 164.3,17.7 164.3,23.5 C164.3,29.3 150.75,29.8 150.75,29.8"
       fill-opacity="0"
       stroke="#000000"
       stroke-width="4.5"
       stroke-linecap="round"
       stroke-linejoin="round"
       id="path187" />
    <path
       d="M150.75,29.8 L164.3,36.83"
       fill-opacity="0"
       stroke="#000000"
       stroke-width="4.5"
       stroke-linecap="round"
       stroke-linejoin="round"
       id="path189" />
    <path
       inkscape:connector-curvature="0"
       d="M 177.3,28.366 177.237,36.9"
       fill-opacity="0"
       stroke="#000000"
       stroke-width="4.5"
       stroke-linecap="round"
       stroke-linejoin="round"
       id="path191" />
    <path
       inkscape:connector-curvature="0"
       d="m 177.3,28.366 7.4,-9.903"
       fill-opacity="0"
       stroke="#000000"
       stroke-width="4.5"
       stroke-linecap="round"
       stroke-linejoin="round"
       id="path193" />
    <path
       inkscape:connector-curvature="0"
       d="m 177.3,28.295 -7.4,-9.903"
       fill-opacity="0"
       stroke="#000000"
       stroke-width="4.5"
       stroke-linecap="round"
       stroke-linejoin="round"
       id="path195" />
    <path
       inkscape:connector-curvature="0"
       d="m 216.45,29.35 0.05,6.43"
       fill-opacity="0"
       stroke="#000000"
       stroke-width="4.5"
       stroke-linecap="round"
       stroke-linejoin="round"
       id="path197" />
    <path
       inkscape:connector-curvature="0"
       d="m 215.267,18.392 c 0,0 -13.517,-2.513 -13.517,9.29 0,11.803 14.75,9.218 14.75,9.218"
       fill-opacity="0"
       stroke="#000000"
       stroke-width="4.5"
       stroke-linecap="round"
       stroke-linejoin="round"
       id="path199" />
    <path
       inkscape:connector-curvature="0"
       d="m 216.45,29.418 -3.7,-0.068"
       fill-opacity="0"
       stroke="#000000"
       stroke-width="4.5"
       stroke-linecap="round"
       stroke-linejoin="round"
       id="path201" />
    <path
       inkscape:connector-curvature="0"
       d="m 223.5,36.9 c 0,0 1.5,-18.569 7.75,-18.732 C 237.5,18.004 239,36.9 239,36.9"
       fill-opacity="0"
       stroke="#000000"
       stroke-width="4.5"
       stroke-linecap="round"
       stroke-linejoin="round"
       id="path203" />
    <path
       inkscape:connector-curvature="0"
       d="M 237.25,30.23 H 226"
       fill-opacity="0"
       stroke="#000000"
       stroke-width="4.5"
       stroke-linecap="round"
       stroke-linejoin="round"
       id="path205" />
    <path
       inkscape:connector-curvature="0"
       d="m 247.08,37.039 c 0,0 0.365,-19.059 4.739,-18.972 4.374,0.086 5.564,18.972 5.564,18.972"
       fill-opacity="0"
       stroke="#000000"
       stroke-width="4.5"
       stroke-linecap="round"
       stroke-linejoin="round"
       id="path207" />
    <path
       inkscape:connector-curvature="0"
       d="m 267.686,37.334 c 0,0 -0.364,-19.059 -4.738,-18.972 -4.374,0.086 -5.565,18.972 -5.565,18.972"
       fill-opacity="0"
       stroke="#000000"
       stroke-width="4.5"
       stroke-linecap="round"
       stroke-linejoin="round"
       id="path209" />
    <path
       inkscape:connector-curvature="0"
       d="m 275.41338,18.669688 0.05,18.4"
       fill-opacity="0"
       stroke="#000000"
       stroke-width="4.5"
       stroke-linecap="round"
       stroke-linejoin="round"
       id="path211" />
    <path
       inkscape:connector-curvature="0"
       d="m 288.38838,18.669688 h -12.975"
       fill-opacity="0"
       stroke="#000000"
       stroke-width="4.5"
       stroke-linecap="round"
       stroke-linejoin="round"
       id="path213" />
    <path
       inkscape:connector-curvature="0"
       d="m 288.38838,37.069688 h -12.975"
       fill-opacity="0"
       stroke="#000000"
       stroke-width="4.5"
       stroke-linecap="round"
       stroke-linejoin="round"
       id="path215" />
    <path
       inkscape:connector-curvature="0"
       d="m 286.38838,27.869688 h -10.975"
       fill-opacity="0"
       stroke="#000000"
       stroke-width="4.5"
       stroke-linecap="round"
       stroke-linejoin="round"
       id="path217" />
  </g>
</svg>
